<svg version="1.2" xmlns="http://www.w3.org/2000/svg" viewBox="0 0 160 160" width="160" height="160">
	<style>
		.s0 { fill: #000000 } 
	</style>
	<path fill-rule="evenodd" class="s0" d="m155 35.6v88.8q0 12.6-9 21.6-9 9-21.6 9h-88.8q-12.6 0-21.6-9-9-9-9-21.6v-88.8q0-12.6 9-21.6 9-9 21.6-9h88.8q12.6 0 21.6 9 9 9 9 21.6zm-30.6-17h-88.8q-7 0-12 5-5 5-5 12v88.8q0 7 5 12 5 5 12 5h88.8q7 0 12-5 5-5 5-12v-88.8q0-7-5-12-5-5-12-5z"/>
	<path id="Shape 1" fill-rule="evenodd" class="s0" d="m74.7 30.98c3.15-1.36 6.8-1.36 9.95 0l46.3 19.85c1.8 0.76 2.94 2.43 2.94 4.28 0 1.85-1.14 3.52-2.94 4.29l-46.3 19.84c-3.15 1.36-6.8 1.36-9.95 0l-46.3-19.84c-1.8-0.79-2.94-2.46-2.94-4.29 0-1.83 1.14-3.52 2.94-4.28zm44.98 40.17l11.27 4.83c1.8 0.77 2.95 2.44 2.95 4.28 0 1.85-1.15 3.52-2.95 4.29l-46.3 19.85c-3.15 1.35-6.79 1.35-9.95 0l-46.3-19.85c-1.8-0.79-2.94-2.46-2.94-4.29 0-1.82 1.14-3.51 2.94-4.28l11.27-4.83 32.19 13.79c4.96 2.12 10.68 2.12 15.63 0zm-32.19 38.95l32.19-13.79 11.27 4.83c1.8 0.77 2.94 2.44 2.94 4.28 0 1.85-1.14 3.52-2.94 4.29l-46.3 19.85c-3.15 1.35-6.8 1.35-9.95 0l-46.3-19.85c-1.8-0.79-2.94-2.46-2.94-4.29 0-1.82 1.14-3.51 2.94-4.28l11.27-4.83 32.19 13.79c4.96 2.12 10.67 2.12 15.63 0z"/>
</svg>