<svg version="1.2" xmlns="http://www.w3.org/2000/svg" viewBox="0 0 160 160" width="160" height="160"><defs><linearGradient id="P" gradientUnits="userSpaceOnUse"/><linearGradient id="g1" x2="1" href="#P" gradientTransform="matrix(0,100.611,-108.44,0,79.68,29.961)"><stop stop-color="#f00"/><stop offset=".5" stop-color="#0f0"/><stop offset="1" stop-color="#00f"/></linearGradient></defs><style>.a{fill:url(#g1)}</style><path fill-rule="evenodd" d="m155 35.6v88.8q0 12.6-9 21.6-9 9-21.6 9h-88.8q-12.6 0-21.6-9-9-9-9-21.6v-88.8q0-12.6 9-21.6 9-9 21.6-9h88.8q12.6 0 21.6 9 9 9 9 21.6zm-30.6-17h-88.8q-7 0-12 5-5 5-5 12v88.8q0 7 5 12 5 5 12 5h88.8q7 0 12-5 5-5 5-12v-88.8q0-7-5-12-5-5-12-5z"/><path fill-rule="evenodd" class="a" d="m74.7 31c3.2-1.4 6.8-1.4 10 0l46.2 19.8c1.8 0.8 3 2.5 3 4.3 0 1.9-1.2 3.5-3 4.3l-46.3 19.8c-3.1 1.4-6.8 1.4-9.9 0l-46.3-19.8c-1.8-0.8-2.9-2.5-2.9-4.3 0-1.8 1.1-3.5 2.9-4.3zm45 40.2l11.2 4.8c1.9 0.8 3 2.5 3 4.3 0 1.9-1.2 3.5-3 4.3l-46.3 19.8c-3.1 1.4-6.7 1.4-9.9 0l-46.3-19.8c-1.8-0.8-2.9-2.5-2.9-4.3 0-1.8 1.1-3.5 2.9-4.3l11.3-4.8 32.2 13.8c4.9 2.1 10.6 2.1 15.6 0zm-32.2 38.9l32.2-13.8 11.3 4.9c1.8 0.7 2.9 2.4 2.9 4.3 0 1.8-1.1 3.5-2.9 4.2l-46.3 19.9c-3.2 1.3-6.8 1.3-10 0l-46.3-19.9c-1.8-0.7-2.9-2.4-2.9-4.2 0-1.9 1.1-3.6 2.9-4.3l11.3-4.9 32.2 13.8c4.9 2.2 10.6 2.2 15.6 0z"/></svg>